# xmcd CD database file
#
# Track frame offsets:
#	150
#	10607
#	21430
#	32140
#	41737
#	51462
#	61392
#	73050
#	84387
#	96127
#	108207
#	118022
#	131007
#	139962
#
# Disc length: 2022 seconds
#
# Revision: 0
# Processed by: cddbd v1.5.2PL0 Copyright (c) Steve Scherf et al.
# Submitted via: CDex 1.77
#
DISCID=c507e40e
DTITLE=Pee Wee Crayton - Wild Blues Guitarist
DYEAR=1900
DGENRE=Blues
TTITLE0=Wine-O
TTITLE1=Do Unto Others
TTITLE2=Every Dog Has His Day
TTITLE3=Hurry Hurry
TTITLE4=Eyes Full Of Tears
TTITLE5=I Need Your Love
TTITLE6=You Know Yeah
TTITLE7=Runnin' Wild
TTITLE8=My Idea About You
TTITLE9=I Got News For You
TTITLE10=Baby Don't You Cry
TTITLE11=Don't Break My Heart
TTITLE12=Wondering Why
TTITLE13=I Must Go On
EXTD=
EXTT0=
EXTT1=
EXTT2=
EXTT3=
EXTT4=
EXTT5=
EXTT6=
EXTT7=
EXTT8=
EXTT9=
EXTT10=
EXTT11=
EXTT12=
EXTT13=
PLAYORDER=
